<svg width="149" height="28" viewBox="0 0 149 28" fill="none" xmlns="http://www.w3.org/2000/svg">
<rect x="0.05" y="0.294629" width="26.7854" height="24.9097" rx="2.95" fill="url(#paint0_linear_418_910)" stroke="#6366F1" stroke-width="0.1"/>
<rect x="2.55097" y="2.79561" width="26.7854" height="24.9097" rx="2.95" fill="url(#paint1_linear_418_910)" stroke="#6366F1" stroke-width="0.1"/>
<path d="M51.6882 12.4922H48.8885C48.8374 12.13 48.733 11.8082 48.5753 11.527C48.4176 11.2415 48.2152 10.9986 47.968 10.7983C47.7209 10.598 47.4354 10.4446 47.1115 10.3381C46.7919 10.2315 46.4446 10.1783 46.0696 10.1783C45.392 10.1783 44.8018 10.3466 44.299 10.6832C43.7962 11.0156 43.4063 11.5014 43.1293 12.1406C42.8523 12.7756 42.7138 13.5469 42.7138 14.4545C42.7138 15.3878 42.8523 16.1719 43.1293 16.8068C43.4105 17.4418 43.8026 17.9212 44.3054 18.245C44.8082 18.5689 45.3899 18.7308 46.0504 18.7308C46.4212 18.7308 46.7642 18.6818 47.0795 18.5838C47.3991 18.4858 47.6825 18.343 47.9297 18.1555C48.1768 17.9638 48.3814 17.7315 48.5433 17.4588C48.7095 17.1861 48.8246 16.875 48.8885 16.5256L51.6882 16.5384C51.6158 17.1392 51.4347 17.7188 51.1449 18.277C50.8594 18.831 50.4737 19.3274 49.9879 19.7663C49.5064 20.201 48.9311 20.5462 48.2621 20.8018C47.5973 21.0533 46.8452 21.179 46.0057 21.179C44.8381 21.179 43.794 20.9148 42.8736 20.3864C41.9574 19.858 41.233 19.093 40.7003 18.0916C40.1719 17.0902 39.9077 15.8778 39.9077 14.4545C39.9077 13.027 40.1761 11.8125 40.7131 10.8111C41.25 9.80966 41.9787 9.04687 42.8991 8.52273C43.8196 7.99432 44.8551 7.73011 46.0057 7.73011C46.7642 7.73011 47.4673 7.83665 48.1151 8.04972C48.767 8.26278 49.3445 8.57386 49.8473 8.98295C50.3501 9.38778 50.7592 9.88423 51.0746 10.4723C51.3942 11.0604 51.5987 11.7337 51.6882 12.4922ZM56.3448 7.90909V21H53.6218V7.90909H56.3448ZM58.5261 21V11.1818H61.2491V21H58.5261ZM59.894 9.91619C59.4892 9.91619 59.1419 9.78196 58.8521 9.51349C58.5666 9.24077 58.4238 8.91477 58.4238 8.53551C58.4238 8.16051 58.5666 7.83878 58.8521 7.57031C59.1419 7.29758 59.4892 7.16122 59.894 7.16122C60.2988 7.16122 60.644 7.29758 60.9295 7.57031C61.2193 7.83878 61.3642 8.16051 61.3642 8.53551C61.3642 8.91477 61.2193 9.24077 60.9295 9.51349C60.644 9.78196 60.2988 9.91619 59.894 9.91619ZM63.4304 24.6818V11.1818H66.1151V12.831H66.2365C66.3558 12.5668 66.5284 12.2983 66.7543 12.0256C66.9844 11.7486 67.2827 11.5185 67.6491 11.3352C68.0199 11.1477 68.4801 11.054 69.0298 11.054C69.7457 11.054 70.4063 11.2415 71.0114 11.6165C71.6165 11.9872 72.1001 12.5476 72.4624 13.2976C72.8246 14.0433 73.0057 14.9787 73.0057 16.1037C73.0057 17.1989 72.8288 18.1236 72.4751 18.8778C72.1257 19.6278 71.6484 20.1967 71.0433 20.5845C70.4425 20.968 69.7692 21.1598 69.0234 21.1598C68.495 21.1598 68.0455 21.0724 67.6747 20.8977C67.3082 20.723 67.0078 20.5036 66.7734 20.2393C66.5391 19.9709 66.3601 19.7003 66.2365 19.4276H66.1534V24.6818H63.4304ZM66.0959 16.0909C66.0959 16.6747 66.1768 17.1839 66.3388 17.6186C66.5007 18.0533 66.7351 18.392 67.0419 18.6349C67.3487 18.8736 67.7216 18.9929 68.1605 18.9929C68.6037 18.9929 68.9787 18.8714 69.2855 18.6286C69.5923 18.3814 69.8246 18.0405 69.9822 17.6058C70.1442 17.1669 70.2251 16.6619 70.2251 16.0909C70.2251 15.5241 70.1463 15.0256 69.9886 14.5952C69.831 14.1648 69.5987 13.8281 69.2919 13.5852C68.9851 13.3423 68.608 13.2209 68.1605 13.2209C67.7173 13.2209 67.3423 13.3381 67.0355 13.5724C66.733 13.8068 66.5007 14.1392 66.3388 14.5696C66.1768 15 66.0959 15.5071 66.0959 16.0909ZM81.8059 7.90909V21H79.0382V7.90909H81.8059ZM86.755 15.3239V21H84.032V11.1818H86.6271V12.9141H86.7422C86.9595 12.343 87.3239 11.8913 87.8352 11.5589C88.3466 11.2223 88.9666 11.054 89.6953 11.054C90.3771 11.054 90.9716 11.2031 91.4787 11.5014C91.9858 11.7997 92.38 12.2259 92.6612 12.7798C92.9425 13.3295 93.0831 13.9858 93.0831 14.7486V21H90.3601V15.2344C90.3643 14.6335 90.2109 14.1648 89.8999 13.8281C89.5888 13.4872 89.1605 13.3168 88.6151 13.3168C88.2486 13.3168 87.9247 13.3956 87.6435 13.5533C87.3665 13.7109 87.1491 13.9411 86.9915 14.2436C86.8381 14.5419 86.7592 14.902 86.755 15.3239ZM104.031 11.1818L100.599 21H97.5304L94.0978 11.1818H96.9743L99.0133 18.2067H99.1156L101.148 11.1818H104.031ZM109.544 21.1918C108.551 21.1918 107.693 20.9808 106.968 20.5589C106.248 20.1328 105.692 19.5405 105.3 18.782C104.908 18.0192 104.712 17.1349 104.712 16.1293C104.712 15.1151 104.908 14.2287 105.3 13.4702C105.692 12.7074 106.248 12.1151 106.968 11.6932C107.693 11.267 108.551 11.054 109.544 11.054C110.537 11.054 111.394 11.267 112.114 11.6932C112.838 12.1151 113.396 12.7074 113.789 13.4702C114.181 14.2287 114.377 15.1151 114.377 16.1293C114.377 17.1349 114.181 18.0192 113.789 18.782C113.396 19.5405 112.838 20.1328 112.114 20.5589C111.394 20.9808 110.537 21.1918 109.544 21.1918ZM109.557 19.0824C110.009 19.0824 110.386 18.9545 110.688 18.6989C110.991 18.4389 111.219 18.0852 111.372 17.6378C111.53 17.1903 111.609 16.6811 111.609 16.1101C111.609 15.5391 111.53 15.0298 111.372 14.5824C111.219 14.1349 110.991 13.7812 110.688 13.5213C110.386 13.2614 110.009 13.1314 109.557 13.1314C109.101 13.1314 108.718 13.2614 108.406 13.5213C108.1 13.7812 107.867 14.1349 107.71 14.5824C107.556 15.0298 107.48 15.5391 107.48 16.1101C107.48 16.6811 107.556 17.1903 107.71 17.6378C107.867 18.0852 108.1 18.4389 108.406 18.6989C108.718 18.9545 109.101 19.0824 109.557 19.0824ZM116.147 21V11.1818H118.87V21H116.147ZM117.515 9.91619C117.11 9.91619 116.763 9.78196 116.473 9.51349C116.188 9.24077 116.045 8.91477 116.045 8.53551C116.045 8.16051 116.188 7.83878 116.473 7.57031C116.763 7.29758 117.11 7.16122 117.515 7.16122C117.92 7.16122 118.265 7.29758 118.551 7.57031C118.84 7.83878 118.985 8.16051 118.985 8.53551C118.985 8.91477 118.84 9.24077 118.551 9.51349C118.265 9.78196 117.92 9.91619 117.515 9.91619ZM125.488 21.1918C124.482 21.1918 123.617 20.9787 122.892 20.5526C122.172 20.1222 121.618 19.5256 121.23 18.7628C120.847 18 120.655 17.1222 120.655 16.1293C120.655 15.1236 120.849 14.2415 121.237 13.483C121.629 12.7202 122.185 12.1257 122.905 11.6996C123.625 11.2692 124.482 11.054 125.475 11.054C126.331 11.054 127.081 11.2095 127.725 11.5206C128.368 11.8317 128.877 12.2685 129.252 12.831C129.627 13.3935 129.834 14.054 129.873 14.8125H127.303C127.23 14.3224 127.039 13.9283 126.728 13.63C126.421 13.3274 126.018 13.1761 125.52 13.1761C125.098 13.1761 124.729 13.2912 124.414 13.5213C124.103 13.7472 123.86 14.0774 123.685 14.5121C123.51 14.9467 123.423 15.473 123.423 16.0909C123.423 16.7173 123.508 17.25 123.679 17.6889C123.853 18.1278 124.098 18.4624 124.414 18.6925C124.729 18.9226 125.098 19.0376 125.52 19.0376C125.831 19.0376 126.11 18.9737 126.357 18.8459C126.608 18.718 126.815 18.5327 126.977 18.2898C127.143 18.0426 127.252 17.7464 127.303 17.4013H129.873C129.83 18.1513 129.625 18.8118 129.259 19.3828C128.897 19.9496 128.396 20.3928 127.757 20.7124C127.118 21.032 126.361 21.1918 125.488 21.1918ZM136.09 21.1918C135.08 21.1918 134.211 20.9872 133.482 20.5781C132.758 20.1648 132.2 19.581 131.808 18.8267C131.416 18.0682 131.22 17.1712 131.22 16.1357C131.22 15.1257 131.416 14.2393 131.808 13.4766C132.2 12.7138 132.752 12.1193 133.463 11.6932C134.179 11.267 135.019 11.054 135.982 11.054C136.629 11.054 137.232 11.1584 137.791 11.3672C138.353 11.5717 138.843 11.8807 139.261 12.294C139.683 12.7074 140.011 13.2273 140.245 13.8537C140.48 14.4759 140.597 15.2045 140.597 16.0398V16.7876H132.306V15.1001H138.034C138.034 14.7081 137.948 14.3608 137.778 14.0582C137.607 13.7557 137.371 13.5192 137.068 13.3487C136.77 13.174 136.423 13.0866 136.026 13.0866C135.613 13.0866 135.247 13.1825 134.927 13.3743C134.612 13.5618 134.365 13.8153 134.186 14.1349C134.007 14.4503 133.915 14.8018 133.911 15.1896V16.794C133.911 17.2798 134 17.6996 134.179 18.0533C134.362 18.407 134.62 18.6797 134.953 18.8714C135.285 19.0632 135.679 19.1591 136.135 19.1591C136.438 19.1591 136.715 19.1165 136.966 19.0312C137.218 18.946 137.433 18.8182 137.612 18.6477C137.791 18.4773 137.927 18.2685 138.021 18.0213L140.539 18.1875C140.411 18.7926 140.149 19.321 139.753 19.7727C139.361 20.2202 138.854 20.5696 138.232 20.821C137.614 21.0682 136.9 21.1918 136.09 21.1918Z" fill="black"/>
<defs>
<linearGradient id="paint0_linear_418_910" x1="0" y1="0.244629" x2="26.8854" y2="25.2543" gradientUnits="userSpaceOnUse">
<stop stop-color="#C7D2FE"/>
<stop offset="1" stop-color="#818CF8"/>
</linearGradient>
<linearGradient id="paint1_linear_418_910" x1="2.50097" y1="2.74561" x2="29.3864" y2="27.7553" gradientUnits="userSpaceOnUse">
<stop stop-color="#C7D2FE"/>
<stop offset="1" stop-color="#818CF8"/>
</linearGradient>
</defs>
</svg>
